<?xml version="1.0" encoding="UTF-8"?>
<svg width="148px" height="133px" viewBox="0 0 148 133" version="1.1" xmlns="http://www.w3.org/2000/svg" xmlns:xlink="http://www.w3.org/1999/xlink">
    <!-- Generator: Sketch 48.2 (47327) - http://www.bohemiancoding.com/sketch -->
    <title>Untitled</title>
    <desc>Created with Sketch.</desc>
    <defs></defs>
    <g id="Page-1" stroke="none" stroke-width="1" fill="none" fill-rule="evenodd">
        <g id="wu-tang" fill="#000000" fill-rule="nonzero">
            <path d="M12.3871787,8.9461841 L59.2611035,21.9483248 C59.2611035,21.9483248 42.2351913,39.138846 63.0189127,54.3458456 C63.5702478,54.1973416 68.8435169,43.2610146 60.2679307,42.6272714 L59.9936865,41.1460148 L76.5052723,33.1873351 C76.5052723,33.1873351 88.0026501,39.138846 82.2549102,51.2594215 C82.2549102,51.2594215 102.52905,39.3601832 78.3272404,23.4891721 L126.72991,0 C126.72991,0 197.107224,94.5913775 81.8297843,133 C81.8297843,133 102.574599,80.7086175 78.6906851,81.0273809 C78.6906851,81.0273809 58.2647147,79.037238 79.6007202,118.716185 C79.6007202,118.716185 -5.74330172,124.74715 0.307150647,46.6614726 C0.307150647,46.6614726 3.17295462,23.4891721 10.4978357,12.0619306 L12.2505311,9.26400159 L12.3871787,8.9461841 Z" id="Shape"></path>
        </g>
    </g>
</svg>