<?xml version="1.0" encoding="utf-8"?>
<!-- Generator: Adobe Illustrator 22.0.1, SVG Export Plug-In . SVG Version: 6.00 Build 0)  -->
<svg id="logo-svg" version="1.1" xmlns="http://www.w3.org/2000/svg" xmlns:xlink="http://www.w3.org/1999/xlink" xmlns:a="http://ns.adobe.com/AdobeSVGViewerExtensions/3.0/" x="0px" y="0px" width="259.9px" height="56.9px" viewBox="0 0 259.9 56.9" enable-background="new 0 0 259.9 56.9" xml:space="preserve">
	<polygon fill="rgb(51, 51, 51)" points="202.9,29.4 202.9,33.8 206.1,33.4 206.1,29.6 " data-fill="51, 51, 51" data-center-x="204.4830322265625" data-center-y="31.59479331970215" data-distance="-1.1384671717062833" data-distance-absolute="1.3455928945407778" class=""></polygon>
	<polygon fill="rgb(51, 51, 51)" points="202.9,39.7 216.6,39.7 216.6,36.8 206.1,36.8 206.1,33.4 202.9,33.8 " data-fill="51, 51, 51" data-center-x="209.73216247558594" data-center-y="36.54397773742676" data-distance="-1.2015036021991454" data-distance-absolute="1.3648312328413867" class=""></polygon>
	<polygon fill="rgb(51, 51, 51)" points="206.1,29.6 206.1,29.4 215.5,29.4 215.5,26.6 206.1,26.6 206.1,20.5 202.9,20.8 202.9,29.4 " data-fill="51, 51, 51" data-center-x="209.1822509765625" data-center-y="25.04587173461914" data-distance="-1.1463173757192182" data-distance-absolute="1.4113981568287834"></polygon>
	<polygon fill="rgb(51, 51, 51)" points="206.1,19.8 208.1,19.8 202.9,17.9 202.9,20.8 206.1,20.5 " data-fill="51, 51, 51" data-center-x="205.4828643798828" data-center-y="19.34680938720703" data-distance="-1.0921082277187122" data-distance-absolute="1.407623188893871"></polygon>
	<polygon fill="rgb(51, 51, 51)" points="211.2,19.8 216.4,19.2 216.4,17.1 202.9,17.1 202.9,17.9 208.1,19.8 " data-fill="51, 51, 51" data-center-x="209.63217163085938" data-center-y="18.44696044921875" data-distance="-1.1206446771539424" data-distance-absolute="1.4441229032670508"></polygon>
	<polygon fill="rgb(51, 51, 51)" points="216.4,19.8 216.4,19.2 211.2,19.8 " data-fill="51, 51, 51" data-center-x="213.781494140625" data-center-y="19.496788024902344" data-distance="-1.1578081334007957" data-distance-absolute="1.4719958499945804"></polygon>
	<polygon fill="rgb(51, 51, 51)" points="186.6,39.7 188.3,39.7 189.7,35.5 185.2,36.1 " data-fill="51, 51, 51" data-center-x="187.4358367919922" data-center-y="37.59380340576172" data-distance="-1.0314127538202011" data-distance-absolute="1.1854498918223098" class=""></polygon>
	<polygon fill="rgb(51, 51, 51)" points="169.1,17 165.7,17 165.7,17.4 168.2,25.1 171.5,24.7 " data-fill="51, 51, 51" data-center-x="168.5889434814453" data-center-y="21.046531677246094" data-distance="-0.8104918116910993" data-distance-absolute="1.1109649826889214" class=""></polygon>
	<polygon fill="rgb(51, 51, 51)" points="173.2,39.7 174.9,39.7 175.8,37.2 172.5,37.7 " data-fill="51, 51, 51" data-center-x="174.13803100585938" data-center-y="38.44366455078125" data-distance="-0.9309584224763471" data-distance-absolute="1.0774746653897873" class=""></polygon>
	<polygon fill="rgb(51, 51, 51)" points="176.2,28.2 174.4,33.2 174.2,33.2 172.5,28 169.2,27.9 172.5,37.7 175.8,37.2 179.3,28.3 " data-fill="51, 51, 51" data-center-x="174.2380142211914" data-center-y="32.794593811035156" data-distance="-0.9067461017656582" data-distance-absolute="1.1032541211370286" class=""></polygon>
	<polygon fill="rgb(51, 51, 51)" points="195.8,17.4 195.8,17 192.5,17 190.8,22.3 194.3,21.9 " data-fill="51, 51, 51" data-center-x="193.28488159179688" data-center-y="19.64676284790039" data-distance="-0.9978399790252375" data-distance-absolute="1.3107004847960304" class=""></polygon>
	<polygon fill="rgb(51, 51, 51)" points="181.4,17.4 180.1,17.4 177.7,23.9 183.5,23.2 " data-fill="51, 51, 51" data-center-x="180.58696746826172" data-center-y="20.646596908569336" data-distance="-0.902750589971447" data-distance-absolute="1.2067630067097714" class=""></polygon>
	<polygon fill="rgb(51, 51, 51)" points="172.5,28 171.5,24.7 168.2,25.1 169.2,27.9 " data-fill="51, 51, 51" data-center-x="170.33865356445312" data-center-y="26.345657348632812" data-distance="-0.8476517318796278" data-distance-absolute="1.10122998543155" class=""></polygon>
	<polygon fill="rgb(51, 51, 51)" points="191.9,28.9 194.3,21.9 190.8,22.3 188.8,28.8 " data-fill="51, 51, 51" data-center-x="191.53516387939453" data-center-y="25.395814895629883" data-distance="-1.0095657411651988" data-distance-absolute="1.2715496801419257" class=""></polygon>
	<polygon fill="rgb(51, 51, 51)" points="179.3,28.3 180.7,24.8 180.9,24.8 182.3,28.5 185.4,28.6 183.5,23.2 177.7,23.9 176.2,28.2 " data-fill="51, 51, 51" data-center-x="180.78693389892578" data-center-y="25.895732879638672" data-distance="-0.9275439903667129" data-distance-absolute="1.1851038763876096" class=""></polygon>
	<polygon fill="rgb(51, 51, 51)" points="188.8,28.8 187.4,33.2 187.1,33.2 185.4,28.6 182.3,28.5 185.2,36.1 189.7,35.5 191.9,28.9 " data-fill="51, 51, 51" data-center-x="187.08589935302734" data-center-y="32.29467964172363" data-distance="-1.005222847118627" data-distance-absolute="1.2061548856874444" class=""></polygon>
	<polygon fill="rgb(51, 51, 51)" points="103.6,24.9 103.6,33 106.8,32.6 106.8,25 " data-fill="51, 51, 51" data-center-x="105.19939422607422" data-center-y="28.945228576660156" data-distance="-0.3486584965973108" data-distance-absolute="0.5792316950339466" class=""></polygon>
	<polygon fill="rgb(51, 51, 51)" points="83.7,39.7 86.9,39.7 86.9,35 83.7,35.4 " data-fill="51, 51, 51" data-center-x="85.30267333984375" data-center-y="37.34384536743164" data-distance="-0.22989010332652388" data-distance-absolute="0.38613925936695187" class=""></polygon>
	<polygon fill="rgb(51, 51, 51)" points="106.8,17.1 105.1,17.1 103,19.5 106.8,20.7 " data-fill="51, 51, 51" data-center-x="104.89944458007812" data-center-y="18.896886825561523" data-distance="-0.30184610487832925" data-distance-absolute="0.6213426816432714" class=""></polygon>
	<polygon fill="rgb(51, 51, 51)" points="103.6,39.7 106.8,39.7 106.8,32.6 103.6,33 " data-fill="51, 51, 51" data-center-x="105.19939422607422" data-center-y="36.14404296875" data-distance="-0.38051165762425704" data-distance-absolute="0.5473785340070004" class=""></polygon>
	<polygon fill="rgb(51, 51, 51)" points="86.9,23.6 87.3,24.1 91.5,24.3 85.4,17.1 83.7,17.1 83.7,24 86.9,24.1 " data-fill="51, 51, 51" data-center-x="87.60229110717773" data-center-y="20.696590423583984" data-distance="-0.17425176603710035" data-distance-absolute="0.47782176228856954" class=""></polygon>
	<polygon fill="rgb(51, 51, 51)" points="95.2,33.1 102.5,24.8 98.5,24.6 95.2,28.5 91.5,24.3 87.3,24.1 " data-fill="51, 51, 51" data-center-x="94.90109634399414" data-center-y="28.595287322998047" data-distance="-0.26640242031782213" data-distance-absolute="0.5000724440081049" class=""></polygon>
	<polygon fill="rgb(51, 51, 51)" points="103.6,23.6 103.6,24.9 106.8,25 106.8,20.7 103,19.5 98.5,24.6 102.5,24.8 " data-fill="51, 51, 51" data-center-x="102.64981460571289" data-center-y="22.246334075927734" data-distance="-0.2990363389803414" data-distance-absolute="0.5888917896358481" class=""></polygon>
	<polygon fill="rgb(51, 51, 51)" points="83.7,24 83.7,35.4 86.9,35 86.9,24.1 " data-fill="51, 51, 51" data-center-x="85.30267333984375" data-center-y="29.695106506347656" data-distance="-0.19604612606509034" data-distance-absolute="0.41998323662838544" class=""></polygon>
	<polygon fill="rgb(51, 51, 51)" points="126.3,26.8 127.9,30 131.2,29.6 130.5,28.1 " data-fill="51, 51, 51" data-center-x="128.74552154541016" data-center-y="28.395320892333984" data-distance="-0.5307560551198612" data-distance-absolute="0.7661956932407995" class=""></polygon>
	<polygon fill="rgb(51, 51, 51)" points="129,32.4 120.3,32.4 120.3,32.3 121,30.9 117.2,31.3 113.5,39.3 113.5,39.7 116.8,39.7 119.1,34.9 130.2,34.9 
		132.5,39.7 135.8,39.7 135.8,39.3 131.2,29.6 127.9,30 " data-fill="51, 51, 51" data-center-x="124.64618682861328" data-center-y="34.644290924072266" data-distance="-0.5262799173710095" data-distance-absolute="0.7064189357420514" class=""></polygon>
	<polygon fill="rgb(51, 51, 51)" points="123.1,25.8 123.4,25.8 123.4,25.8 " data-fill="51, 51, 51" data-center-x="123.24641418457031" data-center-y="25.795745849609375" data-distance="-0.47615705801186814" data-distance-absolute="0.7346017850064754" class=""></polygon>
	<polygon fill="rgb(51, 51, 51)" points="123.1,25.8 120.2,24.9 119.9,25.6 " data-fill="51, 51, 51" data-center-x="121.4967041015625" data-center-y="25.345821380615234" data-distance="-0.4604537803118023" data-distance-absolute="0.7228801397753843" class=""></polygon>
	<polygon fill="rgb(51, 51, 51)" points="123.4,25.8 123.1,25.8 119.9,25.6 117.2,31.3 121,30.9 " data-fill="51, 51, 51" data-center-x="120.29690551757812" data-center-y="28.445310592651367" data-distance="-0.4647655241280471" data-distance-absolute="0.6997627755205129" class=""></polygon>
	<polygon fill="rgb(51, 51, 51)" points="123.4,25.8 124.7,23.1 125.9,25.9 129.5,26.1 125.3,17 123.9,17 120.2,24.9 123.1,25.8 " data-fill="51, 51, 51" data-center-x="124.84616088867188" data-center-y="21.546449661254883" data-distance="-0.4698920623635797" data-distance-absolute="0.7659411804055719" class=""></polygon>
	<polygon fill="rgb(51, 51, 51)" points="126.3,26.8 130.5,28.1 129.5,26.1 125.9,25.9 " data-fill="51, 51, 51" data-center-x="128.1956024169922" data-center-y="26.995548248291016" data-distance="-0.5202526598164261" data-distance-absolute="0.768079666468718" class=""></polygon>
	<polygon fill="rgb(51, 51, 51)" points="224.9,30.4 224.9,31 228.1,30.6 228.1,30.6 " data-fill="51, 51, 51" data-center-x="226.4794158935547" data-center-y="30.6949405670166" data-distance="-1.3068709742937927" data-distance-absolute="1.5219599958246195"></polygon>
	<polygon fill="rgb(51, 51, 51)" points="228.1,17.1 224.9,17.1 224.9,18.2 228.1,17.8 " data-fill="51, 51, 51" data-center-x="226.4794158935547" data-center-y="17.647092819213867" data-distance="-1.2491371347017453" data-distance-absolute="1.579693835416667"></polygon>
	<polygon fill="rgb(51, 51, 51)" points="228.1,27.4 228.1,17.8 224.9,18.2 224.9,26.2 " data-fill="51, 51, 51" data-center-x="226.4794158935547" data-center-y="22.596275329589844" data-distance="-1.2710361723582762" data-distance-absolute="1.557794797760136"></polygon>
	<polygon fill="rgb(51, 51, 51)" points="224.9,30.4 228.1,30.6 228.1,27.4 224.9,26.2 " data-fill="51, 51, 51" data-center-x="226.4794158935547" data-center-y="28.39531898498535" data-distance="-1.2966956575591413" data-distance-absolute="1.532135312559271"></polygon>
	<polygon fill="rgb(51, 51, 51)" points="224.9,39.7 238.5,39.7 238.5,36.8 228.1,36.8 228.1,30.6 224.9,31 " data-fill="51, 51, 51" data-center-x="231.6785430908203" data-center-y="35.14420700073242" data-distance="-1.367303504862362" data-distance-absolute="1.5430184871567654"></polygon>
	<polygon fill="rgb(51, 51, 51)" points="249.4,17.1 246.2,17.1 246.2,28.4 249.4,27.9 " data-fill="51, 51, 51" data-center-x="247.77587890625" data-center-y="22.74625015258789" data-distance="-1.4385999581200488" data-distance-absolute="1.724031372698917"></polygon>
	<polygon fill="rgb(51, 51, 51)" points="259.9,36.8 253,36.8 259.9,39.4 " data-fill="51, 51, 51" data-center-x="256.4244689941406" data-center-y="38.093719482421875" data-distance="-1.5742880336308436" data-distance-absolute="1.7239011355563139"></polygon>
	<polygon fill="rgb(51, 51, 51)" points="246.2,39.7 259.9,39.7 259.9,39.4 253,36.8 249.4,36.8 249.4,35.4 246.2,34.2 " data-fill="51, 51, 51" data-center-x="253.0250244140625" data-center-y="36.943912506103516" data-distance="-1.5425589769383352" data-distance-absolute="1.702347361840074"></polygon>
	<polygon fill="rgb(51, 51, 51)" points="249.4,31.5 249.4,27.9 246.2,28.4 246.2,31.4 " data-fill="51, 51, 51" data-center-x="247.77587890625" data-center-y="29.695104598999023" data-distance="-1.4693471016882396" data-distance-absolute="1.6932842291307262"></polygon>
	<polygon fill="rgb(51, 51, 51)" points="246.2,34.2 249.4,35.4 249.4,31.5 246.2,31.4 " data-fill="51, 51, 51" data-center-x="247.77587890625" data-center-y="33.39449691772461" data-distance="-1.4857160942489722" data-distance-absolute="1.6769152365699935"></polygon>
	<polygon fill="rgb(51, 51, 51)" points="145.4,19.8 149.2,19.8 148.4,17 142.2,17 142.2,26.6 145.4,26.8 " data-fill="51, 51, 51" data-center-x="145.69271850585938" data-center-y="21.896392822265625" data-distance="-0.6348147594267661" data-distance-absolute="0.92776703533592" class=""></polygon>
	<path fill="rgb(51, 51, 51)" d="M150.2,19.8c4.4,0,7,3.1,7.7,6.5L161,26c-0.9-4.3-4.1-8.9-10.8-8.9h-1.8l0.8,2.8H150.2z" data-fill="51, 51, 51" data-center-x="154.6912384033203" data-center-y="21.69642448425293" data-distance="-0.7044512595826652" data-distance-absolute="0.9991731668016658" class=""></path>
	<polygon fill="rgb(51, 51, 51)" points="145.4,27.9 142.2,28.3 142.2,31.7 145.4,32.7 " data-fill="51, 51, 51" data-center-x="143.79302978515625" data-center-y="30.295005798339844" data-distance="-0.6570889211069394" data-distance-absolute="0.8757171883782683" class=""></polygon>
	<path fill="rgb(51, 51, 51)" d="M161.2,27.5l-3.2-0.1c0,0.3,0.1,0.6,0.1,1c0,2.8-1.1,5.6-3.5,7.3l3.4,1.1c2.3-2.3,3.2-5.6,3.2-8.3
		C161.3,28.1,161.2,27.8,161.2,27.5z" data-fill="51, 51, 51" data-center-x="157.91293334960938" data-center-y="32.09470748901367" data-distance="-0.7757097543696377" data-distance-absolute="0.9784114580066848" class=""></path>
	<polygon fill="rgb(51, 51, 51)" points="145.4,27.9 145.4,26.8 142.2,26.6 142.2,28.3 " data-fill="51, 51, 51" data-center-x="143.79302978515625" data-center-y="27.445476531982422" data-distance="-0.6444803845301367" data-distance-absolute="0.888325724955071" class=""></polygon>
	<path fill="rgb(51, 51, 51)" d="M158,36.7l-3.4-1.1c-0.2,0.2-0.4,0.3-0.7,0.4l0.8,2.9C156,38.3,157.1,37.6,158,36.7z" data-fill="51, 51, 51" data-center-x="155.94103240966797" data-center-y="37.24386787414551" data-distance="-0.7830398807572727" data-distance-absolute="0.9401737933754541" class=""></path>
	<path fill="rgb(51, 51, 51)" d="M150.2,36.9h-4.8v-4.2l-3.2-1v8h8.1c1.7,0,3.2-0.3,4.5-0.9l-0.8-2.9C152.9,36.6,151.6,36.9,150.2,36.9z" data-fill="51, 51, 51" data-center-x="148.4922637939453" data-center-y="35.69411849975586" data-distance="-0.7178066530502015" data-distance-absolute="0.8886551619019195" class=""></path>
	<path fill="rgb(51, 51, 51)" d="M158,27.4l3.2,0.1c0-0.5-0.1-1-0.2-1.5l-3.2,0.4C157.9,26.7,158,27,158,27.4z" data-fill="51, 51, 51" data-center-x="159.49044799804688" data-center-y="26.74559211730957" data-distance="-0.7644040697466952" data-distance-absolute="1.0144430775581148" class=""></path>
	<path fill="rgb(51, 51, 51)" d="M9.5,45.4C9.5,45.4,9.5,45.5,9.5,45.4c0.6-3.5,1.3-6.9,2.1-10.1l-2.4,1.1c-0.6,2.2-1,4.5-1.4,6.7
		c0.1,0.1,0.2,0.3,0.1,0.4c0.4,0.7,0.9,1.3,1.4,2c0-0.2,0.1-0.3,0.1-0.3L9.5,45.4z" data-fill="51, 51, 51" data-center-x="9.715131759643555" data-center-y="40.39334678649902" data-distance="0.34899538007196446" data-distance-absolute="0.34899538007196446" class=""></path>
	<path fill="rgb(51, 51, 51)" d="M35.1,18.1L35.1,18.1c-2,2.5-3.8,5.5-5.4,8.8l2.9-1.3c0.8-1.6,1.7-3,2.6-4.3C35.2,20.2,35.1,19.2,35.1,18.1z
		" data-fill="51, 51, 51" data-center-x="32.46138000488281" data-center-y="22.496292114257812" data-distance="0.24992375388788207" data-distance-absolute="0.24992375388788207" class=""></path>
	<path fill="rgb(51, 51, 51)" d="M20.9,14.2c-0.2-1-0.4-1.8-0.7-2.5c-4,5-7.4,12.4-9.8,20.4l2,0.6C14.7,25,17.7,18.6,20.9,14.2z" data-fill="51, 51, 51" data-center-x="15.66415023803711" data-center-y="22.196338653564453" data-distance="0.3828907133051568" data-distance-absolute="0.3828907133051568" class=""></path>
	<path fill="rgb(51, 51, 51)" d="M36.4,18.9l1.1-3.6C36.6,16.1,35.8,17,35,18c0,0,0,0.1,0,0.1L36.4,18.9z" data-fill="51, 51, 51" data-center-x="36.26075744628906" data-center-y="17.09718132019043" data-distance="0.24403793938061324" data-distance-absolute="0.24403793938061324" class=""></path>
	<path fill="rgb(51, 51, 51)" d="M12.3,32.8l-2-0.6C10,33.6,9.6,35,9.2,36.5l2.4-1.1C11.9,34.5,12.1,33.6,12.3,32.8z" data-fill="51, 51, 51" data-center-x="10.764959335327148" data-center-y="34.34434127807617" data-distance="0.3675334023335349" data-distance-absolute="0.3675334023335349" class=""></path>
	<path fill="rgb(51, 51, 51)" d="M35.1,18.1c0,0,0-0.1,0-0.1C35,18,35,18.1,35.1,18.1L35.1,18.1z" data-fill="51, 51, 51" data-center-x="35.07345199584961" data-center-y="18.04702377319336" data-distance="0.24913999831742295" data-distance-absolute="0.24913999831742295" class=""></path>
	<path fill="rgb(51, 51, 51)" d="M14.7,50.7C14.7,50.7,14.7,50.7,14.7,50.7c0.1,0.1,0.1,0,0.1,0c0,0,0,0,0,0.1c0.9,0.6,1.9,1.2,2.8,1.7
		c0,0,0.1,0,0.1,0c2.7-3.5,4.9-9.3,6.4-15.9l-4.6-1.5C18.4,41.2,16.6,47.3,14.7,50.7z" data-fill="51, 51, 51" data-center-x="19.41353416442871" data-center-y="43.792781829833984" data-distance="0.257947343653851" data-distance-absolute="0.257947343653851" class=""></path>
	<path fill="rgb(51, 51, 51)" d="M24.6,12.1l-1.3-0.8c-0.8,0.8-1.6,1.8-2.4,2.8c0.6,3.2,0.6,8.4-0.5,16.1c0,0.3-0.1,0.7-0.2,1l5.4-2.5
		C26.7,21,26,15.6,24.6,12.1z" data-fill="51, 51, 51" data-center-x="23.183412551879883" data-center-y="21.246498107910156" data-distance="0.3281651595384432" data-distance-absolute="0.3281651595384432" class=""></path>
	<path fill="rgb(51, 51, 51)" d="M32.6,25.5l-2.9,1.3c-1.6,3.4-3,7-3.9,10.3l1.9,0.6C28.9,33.6,30.6,29.3,32.6,25.5z" data-fill="51, 51, 51" data-center-x="29.211915969848633" data-center-y="31.594791412353516" data-distance="0.23513092651947112" data-distance-absolute="0.23513092651947112" class=""></path>
	<path fill="rgb(51, 51, 51)" d="M25.6,28.8l-5.4,2.5c-0.2,1.3-0.4,2.6-0.7,3.9l4.6,1.5c0.5-2.1,0.9-4.2,1.2-6.4
		C25.5,29.8,25.5,29.3,25.6,28.8z" data-fill="51, 51, 51" data-center-x="22.56301498413086" data-center-y="32.74460411071777" data-distance="0.2821506342087704" data-distance-absolute="0.2821506342087704" class=""></path>
	<path fill="rgb(51, 51, 51)" d="M24,10.7c-0.2,0.2-0.4,0.4-0.7,0.7l1.3,0.8C24.4,11.6,24.2,11.1,24,10.7z" data-fill="51, 51, 51" data-center-x="23.96278190612793" data-center-y="11.448112487792969" data-distance="0.365412937823283" data-distance-absolute="0.365412937823283" class=""></path>
	<path fill="rgb(51, 51, 51)" d="M23.3,11.4l-1.9-1.1c-0.4,0.5-0.8,0.9-1.2,1.4c0.3,0.6,0.6,1.5,0.7,2.5C21.7,13.1,22.5,12.2,23.3,11.4z" data-fill="51, 51, 51" data-center-x="21.763145446777344" data-center-y="12.247980117797852" data-distance="0.37911223076807066" data-distance-absolute="0.37911223076807066" class=""></path>
	<path fill="rgb(51, 51, 51)" d="M39,14c-0.2-0.7-0.4-1.3-0.6-1.9l-1,3.3C37.9,14.8,38.5,14.4,39,14z" data-fill="51, 51, 51" data-center-x="38.21043395996094" data-center-y="13.747734069824219" data-distance="0.2435789059332003" data-distance-absolute="0.2435789059332003" class=""></path>
	<path fill="rgb(51, 51, 51)" d="M44.3,14.3c1.7,0.3,2.7,1.9,3.2,4.3l3.4-1.6c-0.8-2.8-2.4-4.9-4.8-5.3c-2.4-0.4-4.8,0.5-7.1,2.3
		c0.2,0.7,0.3,1.5,0.5,2.2C41.1,14.8,42.8,14,44.3,14.3z" data-fill="51, 51, 51" data-center-x="44.95932388305664" data-center-y="15.100603103637695" data-distance="0.1847017729077673" data-distance-absolute="0.1847017729077673" class=""></path>
	<path fill="rgb(51, 51, 51)" d="M36.4,18.9l0.3,0.2c0.9-1.1,1.8-2.1,2.7-2.9c-0.1-0.8-0.3-1.5-0.5-2.2c-0.5,0.4-1,0.9-1.5,1.3L36.4,18.9z" data-fill="51, 51, 51" data-center-x="37.91048812866211" data-center-y="16.54727554321289" data-distance="0.23354222694011978" data-distance-absolute="0.23354222694011978" class=""></path>
	<path fill="rgb(51, 51, 51)" d="M27.4,49.5c-1.5-0.3-1.4-3.3-1-5.7c0.3-1.9,0.7-4,1.3-6l-1.9-0.6c-0.7,2.3-1.2,4.5-1.5,6.5
		c-0.9,5.7,0.4,7.7,2.4,8.2L27.4,49.5C27.4,49.5,27.4,49.5,27.4,49.5z" data-fill="51, 51, 51" data-center-x="25.867198944091797" data-center-y="44.542659759521484" data-distance="0.2040519895317333" data-distance-absolute="0.2040519895317333" class=""></path>
	<path fill="rgb(51, 51, 51)" d="M39.4,16.2c-0.9,0.8-1.8,1.7-2.7,2.9l3.2,1.8C39.8,19.3,39.7,17.7,39.4,16.2z" data-fill="51, 51, 51" data-center-x="38.31041717529297" data-center-y="18.54694175720215" data-distance="0.22155990616988913" data-distance-absolute="0.22155990616988913" class=""></path>
	<path fill="rgb(51, 51, 51)" d="M36.7,19.1l-0.3-0.2l-0.3,1C36.3,19.6,36.5,19.4,36.7,19.1z" data-fill="51, 51, 51" data-center-x="36.410728454589844" data-center-y="19.39680290222168" data-distance="0.23268730126429416" data-distance-absolute="0.23268730126429416" class=""></path>
	<path fill="rgb(51, 51, 51)" d="M45.6,24.2l1.6,0.9c0.2-0.2,0.4-0.4,0.6-0.6c0-0.8,0-1.6,0-2.3C47.1,22.7,46.4,23.4,45.6,24.2z" data-fill="51, 51, 51" data-center-x="46.70903396606445" data-center-y="23.646102905273438" data-distance="0.1331773654172519" data-distance-absolute="0.14429075046528406" class=""></path>
	<path fill="rgb(51, 51, 51)" d="M35.1,23.2l1-3.3c-0.3,0.4-0.6,0.9-0.9,1.3C35.2,21.9,35.2,22.6,35.1,23.2z" data-fill="51, 51, 51" data-center-x="35.61086082458496" data-center-y="21.546449661254883" data-distance="0.22944414503522054" data-distance-absolute="0.22944414503522054" class=""></path>
	<path fill="rgb(51, 51, 51)" d="M35.2,21.2c0.3-0.5,0.6-0.9,0.9-1.3l0.3-1l-1.3-0.8C35.1,19.2,35.2,20.2,35.2,21.2z" data-fill="51, 51, 51" data-center-x="35.760841369628906" data-center-y="19.64676284790039" data-distance="0.2366744427785869" data-distance-absolute="0.2366744427785869" class=""></path>
	<path fill="rgb(51, 51, 51)" d="M39.9,20.9l-3.2-1.8c-0.2,0.3-0.4,0.5-0.6,0.8l-1,3.3c0,0.4,0,0.8,0,1.2l4.8-2.2
		C39.9,21.7,39.9,21.3,39.9,20.9z" data-fill="51, 51, 51" data-center-x="37.51055145263672" data-center-y="21.746417999267578" data-distance="0.2136714717936846" data-distance-absolute="0.2136714717936846" class=""></path>
	<path fill="rgb(51, 51, 51)" d="M24,10.7C23.6,10,23.2,9.5,22.7,9c-0.4,0.4-0.9,0.8-1.3,1.3l1.9,1.1C23.5,11.1,23.7,10.9,24,10.7z" data-fill="51, 51, 51" data-center-x="22.712989807128906" data-center-y="10.198318481445312" data-distance="0.3807376087245973" data-distance-absolute="0.3807376087245973" class=""></path>
	<path fill="rgb(51, 51, 51)" d="M24,10.7c2.3-2.2,4.6-3.2,6.5-2.8C33.4,8.6,34.7,13,35,18c0.8-1,1.6-1.9,2.4-2.7l1-3.3
		c-1.3-3.5-3.4-6-6.3-6.6c-3.3-0.6-6.4,0.7-9.4,3.5C23.2,9.5,23.6,10,24,10.7z" data-fill="51, 51, 51" data-center-x="30.561695098876953" data-center-y="11.626222610473633" data-distance="0.3129092193024861" data-distance-absolute="0.3129092193024861" class=""></path>
	<path fill="rgb(51, 51, 51)" d="M47.5,28.4C47,33,45.4,40.1,43.4,43l2.5,0.8c2.4-3.2,4.4-8.9,5.4-15.1c0.1-0.4,0.1-0.7,0.2-1.1l-3.7-2.1
		C47.7,26.4,47.6,27.4,47.5,28.4z" data-fill="51, 51, 51" data-center-x="47.45891189575195" data-center-y="34.644290924072266" data-distance="0.07863603037868747" data-distance-absolute="0.10150298799235444" class=""></path>
	<path fill="rgb(51, 51, 51)" d="M22.7,9c-0.9-0.9-1.8-1.4-2.7-1.6c-1-0.2-2.1-0.1-3.3,0.2l4.8,2.7C21.9,9.8,22.3,9.4,22.7,9z" data-fill="51, 51, 51" data-center-x="19.713483810424805" data-center-y="8.796524047851562" data-distance="0.4104473392493875" data-distance-absolute="0.4104473392493875" class=""></path>
	<path fill="rgb(51, 51, 51)" d="M18,9.8c0.9,0.1,1.6,0.7,2.2,2c0.4-0.5,0.8-1,1.2-1.4l-4.8-2.7C10.5,9,3,16.4,3,28.7h0.9
		C3.9,15.3,13.7,9.2,18,9.8z" data-fill="51, 51, 51" data-center-x="12.214719772338867" data-center-y="18.19700050354004" data-distance="0.4276200539295818" data-distance-absolute="0.4276200539295818" class=""></path>
	<path fill="rgb(51, 51, 51)" d="M27.4,49.5l-0.7,2.4c0.1,0,0.1,0,0.2,0c4.4,0.9,7.6-5,9.7-11.2l-3.8-1.2C31.5,45.1,29.7,49.9,27.4,49.5z" data-fill="51, 51, 51" data-center-x="31.661516189575195" data-center-y="45.738121032714844" data-distance="0.1533523281195936" data-distance-absolute="0.1533523281195936" class=""></path>
	<path fill="rgb(51, 51, 51)" d="M47.5,18.6c0.2,1.1,0.3,2.3,0.4,3.6c1.2-0.8,2.4-1.3,3.8-1.2c-0.1-1.4-0.4-2.7-0.7-3.9L47.5,18.6z" data-fill="51, 51, 51" data-center-x="49.60855484008789" data-center-y="19.64676284790039" data-distance="0.1281500425398801" data-distance-absolute="0.1847104632309129" class=""></path>
	<path fill="rgb(51, 51, 51)" d="M17,53.3c-0.9-0.5-1.8-1-2.6-1.6c-0.1,0-0.2,0.1-0.1,0c0,0,0-0.1,0.1-0.1c0,0-0.1,0-0.1-0.1
		c-1,1.6-2.1,2.4-3.2,2.1c-1.8-0.5-1.9-3.6-1.7-6.3c-0.1,0-0.3-0.1-0.3-0.1l0.1-0.4c-0.6-0.7-1.1-1.4-1.6-2.1c0,0.1-0.1,0.1-0.1,0.1
		c0,0,0,0,0-0.1c0,0.2-0.1,0.4-0.1,0.6c-0.5,3.3-0.9,9.7,2.9,10.8C12.7,56.8,15,55.7,17,53.3C17,53.4,17,53.4,17,53.3
		C16.9,53.5,17,53.4,17,53.3z" data-fill="51, 51, 51" data-center-x="12.057212829589844" data-center-y="50.49568176269531" data-distance="0.2859399155128296" data-distance-absolute="0.2859399155128296" class=""></path>
	<path fill="rgb(51, 51, 51)" d="M58.8,22.4L58.8,22.4c0.5,2.5,0.4,3.6-0.4,3.8c-1.5,0.3-2.2-2.2-3.7-3.9l-0.5,1.6c1.4,1.4,2.3,3.6,4.4,3.1
		c0.6-0.2,1.9-0.7,0.9-4.8L58.8,22.4C58.8,22.4,58.8,22.4,58.8,22.4z" data-fill="51, 51, 51" data-center-x="57.04048538208008" data-center-y="24.63219451904297" data-distance="0.0478466406018538" data-distance-absolute="0.2208950008225447" class=""></path>
	<path fill="rgb(51, 51, 51)" d="M52.3,21c-0.2,0-0.4-0.1-0.7-0.1c0.1,0.6,0.1,1.2,0.1,1.8c0.2,0,0.4,0,0.6,0c0.8,0.1,1.3,0.5,1.9,1.1
		l0.5-1.6C54,21.7,53.3,21.2,52.3,21z" data-fill="51, 51, 51" data-center-x="53.15797424316406" data-center-y="22.346315383911133" data-distance="0.0883883533323807" data-distance-absolute="0.2005823069869898" class=""></path>
	<path fill="rgb(51, 51, 51)" d="M47.9,22.2c0,0.8,0,1.5,0,2.3c1.2-1.1,2.5-1.8,3.9-1.7c0-0.6,0-1.2-0.1-1.8C50.3,20.9,49.1,21.3,47.9,22.2z" data-fill="51, 51, 51" data-center-x="49.858516693115234" data-center-y="22.738754272460938" data-distance="0.11250971586366208" data-distance-absolute="0.17298803393756856" class=""></path>
	<path fill="rgb(51, 51, 51)" d="M41.3,44.2c-0.7-0.1-1-0.8-1-2.2l-1.7-0.6c-0.2,2.6,0.4,4.6,2.7,5c1.6,0.3,3.2-0.7,4.6-2.6L43.4,43
		C42.7,43.9,42,44.3,41.3,44.2z" data-fill="51, 51, 51" data-center-x="42.241817474365234" data-center-y="43.91904067993164" data-distance="0.07848363456162023" data-distance-absolute="0.07848363456162023" class=""></path>
	<path fill="rgb(51, 51, 51)" d="M40.5,40.2c0.4-2.8,2.9-11,6.7-15.1l-1.6-0.9c-3.7,4.3-6.3,11.8-6.8,15.6c-0.1,0.6-0.2,1.1-0.2,1.6l1.7,0.6
		C40.3,41.5,40.4,40.9,40.5,40.2z" data-fill="51, 51, 51" data-center-x="42.90966033935547" data-center-y="33.094547271728516" data-distance="0.1211457448412179" data-distance-absolute="0.1211457448412179" class=""></path>
	<path fill="rgb(51, 51, 51)" d="M47.9,24.5c0,0.3,0,0.6-0.1,1l3.7,2.1c0.2-1.6,0.3-3.2,0.3-4.8C50.3,22.7,49,23.4,47.9,24.5z" data-fill="51, 51, 51" data-center-x="49.80852508544922" data-center-y="25.19110870361328" data-distance="0.10205037382124107" data-distance-absolute="0.16174512437687147" class=""></path>
	<path fill="rgb(51, 51, 51)" d="M39.9,22.1l-4.8,2.2c-0.1,1.9-0.3,3.6-0.5,5.1c-0.4,3-1.1,6.7-1.8,10l3.8,1.2c1.5-4.3,2.4-8.8,2.7-11.2
		C39.7,27,39.9,24.5,39.9,22.1z" data-fill="51, 51, 51" data-center-x="36.36074256896973" data-center-y="31.344833374023438" data-distance="0.18021164871166295" data-distance-absolute="0.18021164871166295" class=""></path>
	<path fill="rgb(51, 51, 51)" d="M53.6,46.3c3.4-4,5.6-8.8,6.3-13.9L59.2,32c-0.7,5.1-3,10-6.5,14L53.6,46.3z" data-fill="51, 51, 51" data-center-x="56.30745315551758" data-center-y="39.143550872802734" data-distance="-0.010618134120613423" data-distance-absolute="0.15094069276837685" class=""></path>
	<path fill="rgb(51, 51, 51)" d="M17.8,52.6C17.7,52.6,17.8,52.7,17.8,52.6c0.1,0.1-0.1,0.2-0.2,0.2c-0.1,0.2-0.3,0.3-0.4,0.5
		c0.1,0.1,0.1,0.1,0.1,0.1c0,0,0,0-0.1,0c2.7,1.4,5.5,2.4,8.3,3l0.3-0.9C23.1,54.9,20.4,54,17.8,52.6z" data-fill="51, 51, 51" data-center-x="21.513185501098633" data-center-y="54.49101638793945" data-distance="0.19415507482074218" data-distance-absolute="0.19415507482074218" class=""></path>
	<path fill="rgb(51, 51, 51)" d="M30.6,56c-1.5,0-3.2-0.2-4.9-0.5l-0.3,0.9c1.7,0.3,3.4,0.5,5.1,0.5c5.6,0,10.7-1.4,15-3.9l0.4-1.2
		C41.5,54.4,36.3,56,30.6,56z" data-fill="51, 51, 51" data-center-x="35.66085433959961" data-center-y="54.341041564941406" data-distance="0.08394353259508297" data-distance-absolute="0.08394353259508297" class=""></path>
	<path fill="rgb(51, 51, 51)" d="M3.9,28.7H3c0,0.4,0,0.7,0,1.1l0.9,0.3C3.9,29.6,3.9,29.2,3.9,28.7z" data-fill="51, 51, 51" data-center-x="3.4661617279052734" data-center-y="29.39515495300293" data-distance="0.4466330650778926" data-distance-absolute="0.4466330650778926" class=""></path>
	<path fill="rgb(51, 51, 51)" d="M14.6,50.7C14.6,50.7,14.6,50.7,14.6,50.7C14.7,50.7,14.7,50.7,14.6,50.7c-1.8-1.3-3.5-2.9-5-4.8
		c0,0,0,0.1,0,0.1c0.2,0.3-0.1,0.4-0.1,0.4s0,0-0.1-0.1c0,0.2,0,0.4-0.1,0.6c0,0.1,0.1,0.2,0.1,0.2c1.4,1.7,3,3.1,4.7,4.4
		C14.3,51.3,14.5,51.1,14.6,50.7C14.6,50.7,14.6,50.7,14.6,50.7z" data-fill="51, 51, 51" data-center-x="12.002254486083984" data-center-y="48.691978454589844" data-distance="0.2943516116229976" data-distance-absolute="0.2943516116229976" class=""></path>
	<path fill="rgb(51, 51, 51)" d="M60.2,30.5l-0.8-0.2c0,0.6-0.1,1.2-0.2,1.7l0.8,0.4C60.1,31.8,60.2,31.2,60.2,30.5z" data-fill="51, 51, 51" data-center-x="59.70689010620117" data-center-y="31.344833374023438" data-distance="-0.002751889981373476" data-distance-absolute="0.21208964773337846" class=""></path>
	<path fill="rgb(51, 51, 51)" d="M53.6,46.3L52.8,46c-1.9,2.2-4.3,4.2-6.9,5.8L45.5,53C48.7,51.3,51.4,49,53.6,46.3z" data-fill="51, 51, 51" data-center-x="49.558563232421875" data-center-y="49.49184036254883" data-distance="-0.0035160388100457136" data-distance-absolute="0.05226081436271095" class=""></path>
	<path fill="rgb(51, 51, 51)" d="M3.9,30.1L3,29.8C3.1,33,3.7,36,4.6,38.6l0.8-0.4C4.6,35.8,4.1,33.1,3.9,30.1z" data-fill="51, 51, 51" data-center-x="4.216037750244141" data-center-y="34.194366455078125" data-distance="0.41952084461872197" data-distance-absolute="0.41952084461872197" class=""></path>
	<path fill="rgb(51, 51, 51)" d="M7.7,43.5c-0.4-0.2-0.2-0.4-0.1-0.3c0.1,0.1,0.1,0.1,0.1,0c-0.9-1.5-1.7-3.2-2.3-5l-0.8,0.4
		c0.7,2.2,1.7,4.1,2.8,5.9c0,0,0.1,0,0.1,0.1C7.6,44.2,7.6,43.8,7.7,43.5z" data-fill="51, 51, 51" data-center-x="6.165716171264648" data-center-y="41.39318084716797" data-distance="0.3723880721417717" data-distance-absolute="0.3723880721417717" class=""></path>
	<path fill="rgb(51, 51, 51)" d="M17.5,52.7c0-0.1,0.1-0.1,0.1-0.2c-1-0.5-1.9-1.1-2.8-1.7c0,0.1,0,0.2,0,0.2s-0.1-0.1-0.2-0.2
		c-0.2,0.3-0.3,0.5-0.5,0.7c0,0,0.1,0,0.1,0.1c0,0,0-0.1,0-0.1c0,0-0.1,0,0,0c0,0,0,0,0,0c0.1,0,0.3,0.1,0.3,0.1s-0.1,0-0.2,0.1
		c0.8,0.6,1.7,1.1,2.6,1.6c0-0.1,0-0.1,0-0.1s0.1,0,0.1,0.1C17.3,53.1,17.4,53,17.5,52.7C17.5,52.8,17.5,52.8,17.5,52.7z" data-fill="51, 51, 51" data-center-x="15.864118576049805" data-center-y="52.041419982910156" data-distance="0.24926568133247595" data-distance-absolute="0.24926568133247595" class=""></path>
	<path fill="rgb(51, 51, 51)" d="M9.3,46.9c0-0.2,0-0.4,0.1-0.6C9.3,46.2,9,46.1,9.1,46c0-0.1,0.1-0.3,0.1-0.5c-0.5-0.6-0.9-1.3-1.4-2
		c0,0-0.1,0-0.2,0c0,0,0,0,0,0c-0.1,0.4-0.1,0.7-0.2,1.1c0,0,0.1,0,0.1,0s0,0.1,0,0.1c0.5,0.7,1,1.5,1.6,2.1l0.1-0.1
		C9.2,46.7,9.3,46.8,9.3,46.9z" data-fill="51, 51, 51" data-center-x="8.415346145629883" data-center-y="45.19255065917969" data-distance="0.33794637233945674" data-distance-absolute="0.33794637233945674" class=""></path>
	<path fill="rgb(51, 51, 51)" d="M14.7,50.8C14.7,50.7,14.7,50.7,14.7,50.8c-0.1-0.1-0.1,0-0.1,0C14.7,50.8,14.7,50.8,14.7,50.8z" data-fill="51, 51, 51" data-center-x="14.664316177368164" data-center-y="50.75413513183594" data-distance="0.26436447211600583" data-distance-absolute="0.26436447211600583" class=""></path>
	<path fill="rgb(51, 51, 51)" d="M60.6,29.5c0.3-0.3,0.4-0.6,0.4-0.9c0-0.6-0.5-1.2-1.2-1.2c-0.6,0-1.2,0.5-1.2,1.2c0,0.4,0.2,0.7,0.4,0.9
		c0.2,0.3,0.4,0.5,0.4,0.8l0.7,0.1C60.1,30.1,60.3,29.8,60.6,29.5z" data-fill="51, 51, 51" data-center-x="59.80687713623047" data-center-y="28.89523696899414" data-distance="0.007303434750751153" data-distance-absolute="0.22371216729354848" class=""></path>
	<path fill="rgb(51, 51, 51)" d="M2.1,27.9c-0.3-0.3-0.4-0.5-0.4-0.8H0.9c0,0.3-0.2,0.6-0.5,0.8C0.1,28.2,0,28.5,0,28.8l2.2,0.7
		c0.2-0.2,0.3-0.4,0.3-0.7C2.5,28.5,2.4,28.2,2.1,27.9z" data-fill="51, 51, 51" data-center-x="1.2665233612060547" data-center-y="28.295337677001953" data-distance="0.4687380583953582" data-distance-absolute="0.4687380583953582" class=""></path>
	<path fill="rgb(51, 51, 51)" d="M0,28.8C0,29.5,0.5,30,1.2,30c0.4,0,0.8-0.2,1-0.5L0,28.8C0,28.8,0,28.8,0,28.8z" data-fill="51, 51, 51" data-center-x="1.1165485382080078" data-center-y="29.39515495300293" data-distance="0.4650469615488743" data-distance-absolute="0.4650469615488743" class=""></path>
	<path fill="rgb(51, 51, 51)" d="M13.8,5.9L13,5.5C6.2,10.2,1.4,17.8,0.9,27.1h0.8C2.2,17.9,7,10.5,13.8,5.9z" data-fill="51, 51, 51" data-center-x="7.3655195236206055" data-center-y="16.297313690185547" data-distance="0.47402888453942316" data-distance-absolute="0.47402888453942316" class=""></path>
	<path fill="rgb(51, 51, 51)" d="M30.6,0.8c3.7,0,7.3,0.7,10.5,1.9l0.2-0.8C38,0.7,34.4,0,30.6,0C24.2,0,18,2,13,5.5l0.8,0.4
		C18.6,2.6,24.5,0.8,30.6,0.8z" data-fill="51, 51, 51" data-center-x="27.162254333496094" data-center-y="2.949514389038086" data-distance="0.3779431188652531" data-distance-absolute="0.3779431188652531" class=""></path>
	<path fill="rgb(51, 51, 51)" d="M55.7,14.8l0.8-0.4C53.1,8.8,47.8,4.3,41.4,1.9l-0.2,0.8C47.3,5,52.4,9.4,55.7,14.8z" data-fill="51, 51, 51" data-center-x="48.858680725097656" data-center-y="8.348624229431152" data-distance="0.18401856272548736" data-distance-absolute="0.22882547064237854" class=""></path>
	<path fill="rgb(51, 51, 51)" d="M58.5,21.4c0.1,0.3,0.3,0.9,0.3,1l0.7-0.2c0,0,0,0,0,0l0.1,0c0-0.2-0.1-0.3-0.1-0.4
		c-0.6-2.4-1.5-4.6-2.7-6.7l-0.3,1.2C57.3,17.9,58,19.6,58.5,21.4z" data-fill="51, 51, 51" data-center-x="58.057159423828125" data-center-y="18.746910095214844" data-distance="0.06592005721923563" data-distance-absolute="0.25490374724788967" class=""></path>
	<path fill="rgb(51, 51, 51)" d="M56.5,16.2l0.3-1.2c-0.1-0.2-0.3-0.4-0.4-0.6l-0.8,0.4C55.9,15.3,56.2,15.7,56.5,16.2z" data-fill="51, 51, 51" data-center-x="56.20746994018555" data-center-y="15.297479629516602" data-distance="0.09567902296972522" data-distance-absolute="0.2556707148221633" class=""></path>
	<path fill="rgb(51, 51, 51)" d="M58.8,22.4C58.8,22.4,58.8,22.4,58.8,22.4l0.7-0.2c0,0,0,0,0,0L58.8,22.4z" data-fill="51, 51, 51" data-center-x="59.156982421875" data-center-y="22.29632568359375" data-distance="0.04159537601706409" data-distance-absolute="0.24781767103077884" class=""></path>
	<path fill="rgb(51, 51, 51)" d="M9.5,45.5c0,0.1,0,0.2,0,0.3c0,0,0.1,0.1,0.1,0.1C9.5,45.8,9.5,45.7,9.5,45.5C9.5,45.5,9.5,45.5,9.5,45.5z" data-fill="51, 51, 51" data-center-x="9.565156936645508" data-center-y="45.692466735839844" data-distance="0.32672329794521565" data-distance-absolute="0.32672329794521565" class=""></path>
	<path fill="rgb(51, 51, 51)" d="M9.5,45.5C9.5,45.5,9.5,45.5,9.5,45.5C9.5,45.5,9.5,45.4,9.5,45.5l-0.2-0.3c0,0,0,0.1-0.1,0.3
		c0.1,0.1,0.2,0.2,0.2,0.3C9.5,45.7,9.5,45.6,9.5,45.5z" data-fill="51, 51, 51" data-center-x="9.365188598632812" data-center-y="45.49250030517578" data-distance="0.3291752551449689" data-distance-absolute="0.3291752551449689" class=""></path>
	<path fill="rgb(51, 51, 51)" d="M9.4,46.3c0.1,0,0.1,0.1,0.1,0.1s0.3-0.1,0.1-0.4c0,0,0-0.1,0-0.1c0,0-0.1-0.1-0.1-0.1
		C9.4,46,9.4,46.1,9.4,46.3z" data-fill="51, 51, 51" data-center-x="9.54953384399414" data-center-y="46.09239959716797" data-distance="0.3250761215447434" data-distance-absolute="0.3250761215447434" class=""></path>
	<path fill="rgb(51, 51, 51)" d="M9.2,45.5c-0.1,0.2-0.1,0.5-0.1,0.5c-0.1,0.1,0.2,0.2,0.3,0.3c0-0.2,0-0.4,0.1-0.5
		C9.4,45.7,9.3,45.6,9.2,45.5z" data-fill="51, 51, 51" data-center-x="9.305135726928711" data-center-y="45.89243698120117" data-distance="0.32787625762590655" data-distance-absolute="0.32787625762590655" class=""></path>
	<path fill="rgb(51, 51, 51)" d="M9.4,47.2C9.4,47.2,9.4,47.2,9.4,47.2c0-0.1,0-0.1-0.1-0.1C9.3,47.1,9.3,47.2,9.4,47.2
		C9.3,47.3,9.4,47.2,9.4,47.2C9.3,47.2,9.4,47.1,9.4,47.2z" data-fill="51, 51, 51" data-center-x="9.365188598632812" data-center-y="47.164451599121094" data-distance="0.3217772405699897" data-distance-absolute="0.3217772405699897" class=""></path>
	<path fill="rgb(51, 51, 51)" d="M9.1,46.8L9,47.2c0,0,0.2,0.1,0.3,0.1c0-0.1,0-0.1,0-0.2C9.3,47,9.2,46.9,9.1,46.8z" data-fill="51, 51, 51" data-center-x="9.16522216796875" data-center-y="47.04224395751953" data-distance="0.3238851173835399" data-distance-absolute="0.3238851173835399" class=""></path>
	<path fill="rgb(51, 51, 51)" d="M9.4,47.2c0,0,0-0.1-0.1-0.2c0,0,0,0.1,0,0.1C9.4,47.1,9.4,47.1,9.4,47.2z" data-fill="51, 51, 51" data-center-x="9.365188598632812" data-center-y="47.09223937988281" data-distance="0.32209676366396434" data-distance-absolute="0.32209676366396434" class=""></path>
	<path fill="rgb(51, 51, 51)" d="M9.3,46.9c0-0.1-0.1-0.2-0.1-0.2l-0.1,0.1c0.1,0.1,0.1,0.2,0.2,0.2C9.3,47,9.3,47,9.3,46.9z" data-fill="51, 51, 51" data-center-x="9.215213775634766" data-center-y="46.842281341552734" data-distance="0.3243781239605381" data-distance-absolute="0.3243781239605381" class=""></path>
	<path fill="rgb(51, 51, 51)" d="M14.7,50.8C14.8,50.8,14.8,50.8,14.7,50.8C14.8,50.7,14.8,50.7,14.7,50.8C14.8,50.7,14.8,50.8,14.7,50.8z" data-fill="51, 51, 51" data-center-x="14.751802444458008" data-center-y="50.75413513183594" data-distance="0.2636788430635776" data-distance-absolute="0.2636788430635776" class=""></path>
	<path fill="rgb(51, 51, 51)" d="M14.6,50.7C14.6,50.7,14.6,50.7,14.6,50.7C14.6,50.8,14.6,50.7,14.6,50.7C14.6,50.7,14.6,50.7,14.6,50.7z" data-fill="51, 51, 51" data-center-x="14.614326477050781" data-center-y="50.7138671875" data-distance="0.26493441767211984" data-distance-absolute="0.26493441767211984" class=""></path>
	<path fill="rgb(51, 51, 51)" d="M14.6,50.7C14.6,50.7,14.6,50.8,14.6,50.7c0,0.1,0.2,0.3,0.2,0.3s0-0.1,0-0.2c0,0,0,0-0.1,0
		C14.7,50.8,14.7,50.8,14.6,50.7z" data-fill="51, 51, 51" data-center-x="14.714309692382812" data-center-y="50.84162139892578" data-distance="0.2635855660324907" data-distance-absolute="0.2635855660324907" class=""></path>
	<path fill="rgb(51, 51, 51)" d="M14.2,51.7c-0.1,0.1,0,0,0.1,0C14.3,51.6,14.3,51.6,14.2,51.7C14.2,51.6,14.2,51.7,14.2,51.7z" data-fill="51, 51, 51" data-center-x="14.243673324584961" data-center-y="51.676204681396484" data-distance="0.26358109243826144" data-distance-absolute="0.26358109243826144" class=""></path>
	<path fill="rgb(51, 51, 51)" d="M14.2,51.5C14.3,51.5,14.3,51.6,14.2,51.5c0.1,0.1,0.1,0.1,0.1,0.1c0.1,0,0.2-0.1,0.2-0.1
		S14.3,51.6,14.2,51.5z" data-fill="51, 51, 51" data-center-x="14.364364624023438" data-center-y="51.54150390625" data-distance="0.2632312569885567" data-distance-absolute="0.2632312569885567" class=""></path>
	<path fill="rgb(51, 51, 51)" d="M14.2,51.5C14.2,51.5,14.2,51.5,14.2,51.5C14.2,51.5,14.2,51.5,14.2,51.5z" data-fill="51, 51, 51" data-center-x="14.21438980102539" data-center-y="51.49151611328125" data-distance="0.26462779319061136" data-distance-absolute="0.26462779319061136" class=""></path>
	<path fill="rgb(51, 51, 51)" d="M17.7,52.5C17.7,52.6,17.7,52.6,17.7,52.5C17.7,52.6,17.7,52.6,17.7,52.5C17.8,52.6,17.8,52.6,17.7,52.5
		C17.8,52.6,17.8,52.6,17.7,52.5z" data-fill="51, 51, 51" data-center-x="17.75130844116211" data-center-y="52.528839111328125" data-distance="0.23231907030029872" data-distance-absolute="0.23231907030029872" class=""></path>
	<path fill="rgb(51, 51, 51)" d="M17.6,52.5C17.7,52.6,17.7,52.6,17.6,52.5c0.1,0,0.1,0,0.1,0C17.7,52.5,17.7,52.5,17.6,52.5z" data-fill="51, 51, 51" data-center-x="17.663822174072266" data-center-y="52.528839111328125" data-distance="0.23300469935272697" data-distance-absolute="0.23300469935272697" class=""></path>
	<path fill="rgb(51, 51, 51)" d="M17.6,52.8c0.1,0,0.3-0.1,0.2-0.1c0,0-0.1-0.1,0-0.1c0,0,0,0-0.1,0C17.7,52.7,17.6,52.7,17.6,52.8z" data-fill="51, 51, 51" data-center-x="17.727439880371094" data-center-y="52.69131851196289" data-distance="0.2317871925857099" data-distance-absolute="0.2317871925857099" class=""></path>
	<path fill="rgb(51, 51, 51)" d="M17.6,52.5c-0.1,0-0.1,0.1-0.1,0.2c0,0.1,0,0.1,0.1,0.1C17.6,52.7,17.7,52.7,17.6,52.5
		C17.7,52.6,17.7,52.6,17.6,52.5z" data-fill="51, 51, 51" data-center-x="17.601333618164062" data-center-y="52.64132308959961" data-distance="0.23299670485969748" data-distance-absolute="0.23299670485969748" class=""></path>
	<path fill="rgb(51, 51, 51)" d="M17,53.4C17.1,53.4,17.1,53.4,17,53.4C17.1,53.4,17.1,53.4,17,53.4C17.1,53.4,17.1,53.4,17,53.4z" data-fill="51, 51, 51" data-center-x="17.051424026489258" data-center-y="53.391204833984375" data-distance="0.23398828034222757" data-distance-absolute="0.23398828034222757" class=""></path>
	<path fill="rgb(51, 51, 51)" d="M17,53.3C17,53.4,16.9,53.5,17,53.3C17,53.4,17,53.4,17,53.3c0.1,0.1,0.1,0.1,0.1,0.1
		C17,53.3,17,53.3,17,53.3z" data-fill="51, 51, 51" data-center-x="17.041702270507812" data-center-y="53.348941802978516" data-distance="0.23425147421439982" data-distance-absolute="0.23425147421439982" class=""></path>
	<path fill="rgb(51, 51, 51)" d="M17.1,53.3C17.1,53.3,17.1,53.3,17.1,53.3c0,0.1,0,0.1,0,0.1c0,0,0.1,0,0.1,0C17.3,53.4,17.2,53.3,17.1,53.3
		z" data-fill="51, 51, 51" data-center-x="17.184612274169922" data-center-y="53.34120559692383" data-distance="0.23316572085992307" data-distance-absolute="0.23316572085992307" class=""></path>
	<path fill="rgb(51, 51, 51)" d="M17,53.3c0,0,0.1,0,0.1,0.1c0,0,0,0,0.1-0.1c-0.1,0-0.1-0.1-0.1-0.1S17,53.3,17,53.3z" data-fill="51, 51, 51" data-center-x="17.113914489746094" data-center-y="53.29121780395508" data-distance="0.23394096365622366" data-distance-absolute="0.23394096365622366" class=""></path>
	<path fill="rgb(51, 51, 51)" d="M7.8,43.2C7.7,43.1,7.7,43.1,7.8,43.2C7.7,43.2,7.7,43.2,7.8,43.2c-0.1,0.1,0,0.1,0,0.2
		C7.7,43.3,7.8,43.2,7.8,43.2z" data-fill="51, 51, 51" data-center-x="7.777950286865234" data-center-y="43.25537109375" data-distance="0.35151322868775337" data-distance-absolute="0.35151322868775337" class=""></path>
	<path fill="rgb(51, 51, 51)" d="M7.8,43.2c0,0.1,0,0.1,0,0.2c0,0.1,0.1,0.1,0.1,0.2C7.9,43.5,7.8,43.3,7.8,43.2z" data-fill="51, 51, 51" data-center-x="7.865436553955078" data-center-y="43.392852783203125" data-distance="0.3502192735757981" data-distance-absolute="0.3502192735757981" class=""></path>
	<path fill="rgb(51, 51, 51)" d="M7.7,43.2C7.7,43.3,7.7,43.3,7.7,43.2c-0.2-0.1-0.4,0.1,0,0.3C7.7,43.4,7.7,43.4,7.7,43.2
		C7.7,43.3,7.7,43.3,7.7,43.2z" data-fill="51, 51, 51" data-center-x="7.600009918212891" data-center-y="43.329559326171875" data-distance="0.35257947916832033" data-distance-absolute="0.35257947916832033" class=""></path>
	<path fill="rgb(51, 51, 51)" d="M7.9,43.5c0-0.1-0.1-0.1-0.1-0.2c0,0.1,0,0.1,0,0.2c0,0,0,0,0,0C7.8,43.5,7.8,43.5,7.9,43.5z" data-fill="51, 51, 51" data-center-x="7.865436553955078" data-center-y="43.392845153808594" data-distance="0.35021930733418094" data-distance-absolute="0.35021930733418094" class=""></path>
	<path fill="rgb(51, 51, 51)" d="M7.4,44.5C7.4,44.5,7.4,44.5,7.4,44.5c0.1,0.1,0.1,0.2,0.1,0.2c0,0,0-0.1,0-0.1C7.5,44.6,7.4,44.5,7.4,44.5z
		" data-fill="51, 51, 51" data-center-x="7.465503692626953" data-center-y="44.5926513671875" data-distance="0.34804470035693624" data-distance-absolute="0.34804470035693624" class=""></path>
	<path fill="rgb(51, 51, 51)" d="M7.6,44.7C7.5,44.7,7.5,44.7,7.6,44.7C7.5,44.7,7.5,44.7,7.6,44.7C7.5,44.8,7.5,44.8,7.6,44.7
		C7.5,44.9,7.5,44.8,7.6,44.7z" data-fill="51, 51, 51" data-center-x="7.577983856201172" data-center-y="44.750362396240234" data-distance="0.3464653579610745" data-distance-absolute="0.3464653579610745" class=""></path>
	<path fill="rgb(51, 51, 51)" d="M7.5,44.6c0,0-0.1,0-0.1-0.1C7.4,44.5,7.5,44.6,7.5,44.6C7.5,44.6,7.5,44.6,7.5,44.6z" data-fill="51, 51, 51" data-center-x="7.465503692626953" data-center-y="44.542659759521484" data-distance="0.34826590216076814" data-distance-absolute="0.34826590216076814" class=""></path>
	<path fill="rgb(51, 51, 51)" d="M7.5,44.6C7.5,44.6,7.5,44.6,7.5,44.6c0,0.1,0,0.1,0,0.2C7.6,44.7,7.6,44.6,7.5,44.6
		C7.6,44.6,7.6,44.6,7.5,44.6z" data-fill="51, 51, 51" data-center-x="7.552988052368164" data-center-y="44.69263458251953" data-distance="0.3469166826447174" data-distance-absolute="0.3469166826447174" class=""></path>
	</svg>